<mxfile host="65bd71144e">
    <diagram id="Dp09zciwQ04VZwHExYm0" name="Page-1">
        <mxGraphModel dx="1682" dy="1567" grid="1" gridSize="10" guides="1" tooltips="1" connect="1" arrows="1" fold="1" page="1" pageScale="1" pageWidth="850" pageHeight="1100" math="0" shadow="0">
            <root>
                <mxCell id="0"/>
                <mxCell id="1" parent="0"/>
                <mxCell id="64" value="" style="group" parent="1" vertex="1" connectable="0">
                    <mxGeometry x="370" y="354" width="319.99999999999994" height="123" as="geometry"/>
                </mxCell>
                <mxCell id="54" value="" style="rounded=1;whiteSpace=wrap;html=1;" parent="64" vertex="1">
                    <mxGeometry width="320" height="123" as="geometry"/>
                </mxCell>
                <mxCell id="55" value="" style="sketch=0;html=1;dashed=0;whitespace=wrap;fillColor=#2875E2;strokeColor=#ffffff;points=[[0.005,0.63,0],[0.1,0.2,0],[0.9,0.2,0],[0.5,0,0],[0.995,0.63,0],[0.72,0.99,0],[0.5,1,0],[0.28,0.99,0]];verticalLabelPosition=bottom;align=center;verticalAlign=top;shape=mxgraph.kubernetes.icon;prIcon=pod" parent="64" vertex="1">
                    <mxGeometry x="19.42999999999995" y="10" width="30" height="28" as="geometry"/>
                </mxCell>
                <mxCell id="56" value="user-management-ui-service" style="aspect=fixed;html=1;points=[];align=center;image;fontSize=12;image=img/lib/azure2/compute/Image_Definitions.svg;fillColor=#CCCCCC;" parent="64" vertex="1">
                    <mxGeometry x="124.57" y="38" width="49.43" height="47.93" as="geometry"/>
                </mxCell>
                <mxCell id="43" value="" style="sketch=0;aspect=fixed;html=1;points=[];align=center;image;fontSize=12;image=img/lib/mscae/Docker.svg;fillColor=#CCCCCC;movable=1;resizable=1;rotatable=1;deletable=1;editable=1;connectable=1;" parent="64" vertex="1">
                    <mxGeometry x="259.42999999999995" y="10" width="50" height="41" as="geometry"/>
                </mxCell>
                <mxCell id="47" value="" style="rounded=1;whiteSpace=wrap;html=1;" parent="1" vertex="1">
                    <mxGeometry x="370" y="484" width="320" height="123" as="geometry"/>
                </mxCell>
                <mxCell id="73" style="edgeStyle=none;html=1;" parent="1" target="56" edge="1">
                    <mxGeometry relative="1" as="geometry">
                        <mxPoint x="156.56999999999994" y="490.25493444881886" as="sourcePoint"/>
                    </mxGeometry>
                </mxCell>
                <mxCell id="77" style="edgeStyle=none;html=1;fontColor=#FFFFFF;dashed=1;" parent="1" target="76" edge="1">
                    <mxGeometry relative="1" as="geometry">
                        <mxPoint x="156.56999999999994" y="496.0316002745009" as="sourcePoint"/>
                    </mxGeometry>
                </mxCell>
                <mxCell id="33" value="ENTORNO PRODUCCIÃ“N" style="text;html=1;strokeColor=none;fillColor=none;align=center;verticalAlign=middle;whiteSpace=wrap;rounded=0;" parent="1" vertex="1">
                    <mxGeometry x="370" y="246.57" width="180" height="30" as="geometry"/>
                </mxCell>
                <mxCell id="46" value="" style="sketch=0;html=1;dashed=0;whitespace=wrap;fillColor=#2875E2;strokeColor=#ffffff;points=[[0.005,0.63,0],[0.1,0.2,0],[0.9,0.2,0],[0.5,0,0],[0.995,0.63,0],[0.72,0.99,0],[0.5,1,0],[0.28,0.99,0]];verticalLabelPosition=bottom;align=center;verticalAlign=top;shape=mxgraph.kubernetes.icon;prIcon=pod" parent="1" vertex="1">
                    <mxGeometry x="390" y="494" width="30" height="28" as="geometry"/>
                </mxCell>
                <mxCell id="79" style="edgeStyle=none;html=1;" parent="1" source="76" target="50" edge="1">
                    <mxGeometry relative="1" as="geometry"/>
                </mxCell>
                <mxCell id="76" value="&lt;font color=&quot;#ffffff&quot;&gt;API Gateway&lt;/font&gt;" style="sketch=0;outlineConnect=0;fontColor=#232F3E;gradientColor=none;fillColor=#66B2FF;strokeColor=none;dashed=0;verticalLabelPosition=bottom;verticalAlign=top;align=center;html=1;fontSize=12;fontStyle=0;aspect=fixed;pointerEvents=1;shape=mxgraph.aws4.endpoint;" parent="1" vertex="1">
                    <mxGeometry x="267.28999999999996" y="487" width="48" height="48" as="geometry"/>
                </mxCell>
                <mxCell id="50" value="user-management-service" style="aspect=fixed;html=1;points=[];align=center;image;fontSize=12;image=img/lib/azure2/compute/Image_Definitions.svg;fillColor=#CCCCCC;" parent="1" vertex="1">
                    <mxGeometry x="525.28" y="521.54" width="49.43" height="47.93" as="geometry"/>
                </mxCell>
                <mxCell id="62" style="edgeStyle=none;html=1;" parent="1" source="56" target="50" edge="1">
                    <mxGeometry relative="1" as="geometry"/>
                </mxCell>
                <mxCell id="78" value="" style="sketch=0;aspect=fixed;html=1;points=[];align=center;image;fontSize=12;image=img/lib/mscae/Docker.svg;fillColor=#CCCCCC;movable=1;resizable=1;rotatable=1;deletable=1;editable=1;connectable=1;" parent="1" vertex="1">
                    <mxGeometry x="630" y="494" width="50" height="41" as="geometry"/>
                </mxCell>
                <mxCell id="3" value="db-service" style="aspect=fixed;html=1;points=[];align=center;image;fontSize=12;image=img/lib/azure2/databases/Azure_Database_PostgreSQL_Server_Group.svg;" parent="1" vertex="1">
                    <mxGeometry x="260" y="674" width="55.29" height="62.67" as="geometry"/>
                </mxCell>
                <mxCell id="80" value="" style="group" parent="1" vertex="1" connectable="0">
                    <mxGeometry x="370" y="624" width="319.99999999999994" height="123" as="geometry"/>
                </mxCell>
                <mxCell id="81" value="" style="rounded=1;whiteSpace=wrap;html=1;" parent="80" vertex="1">
                    <mxGeometry width="320" height="123" as="geometry"/>
                </mxCell>
                <mxCell id="82" value="" style="sketch=0;html=1;dashed=0;whitespace=wrap;fillColor=#2875E2;strokeColor=#ffffff;points=[[0.005,0.63,0],[0.1,0.2,0],[0.9,0.2,0],[0.5,0,0],[0.995,0.63,0],[0.72,0.99,0],[0.5,1,0],[0.28,0.99,0]];verticalLabelPosition=bottom;align=center;verticalAlign=top;shape=mxgraph.kubernetes.icon;prIcon=pod" parent="80" vertex="1">
                    <mxGeometry x="19.42999999999995" y="10" width="30" height="28" as="geometry"/>
                </mxCell>
                <mxCell id="83" value="user-audit-service" style="aspect=fixed;html=1;points=[];align=center;image;fontSize=12;image=img/lib/azure2/compute/Image_Definitions.svg;fillColor=#CCCCCC;" parent="80" vertex="1">
                    <mxGeometry x="124.57" y="38" width="49.43" height="47.93" as="geometry"/>
                </mxCell>
                <mxCell id="84" value="" style="sketch=0;aspect=fixed;html=1;points=[];align=center;image;fontSize=12;image=img/lib/mscae/Docker.svg;fillColor=#CCCCCC;movable=1;resizable=1;rotatable=1;deletable=1;editable=1;connectable=1;" parent="80" vertex="1">
                    <mxGeometry x="259.42999999999995" y="10" width="50" height="41" as="geometry"/>
                </mxCell>
                <mxCell id="87" style="edgeStyle=none;html=1;" parent="1" source="56" target="83" edge="1">
                    <mxGeometry relative="1" as="geometry"/>
                </mxCell>
                <mxCell id="89" style="edgeStyle=none;html=1;" parent="1" source="83" target="3" edge="1">
                    <mxGeometry relative="1" as="geometry"/>
                </mxCell>
                <mxCell id="93" style="edgeStyle=none;html=1;" parent="1" source="91" target="3" edge="1">
                    <mxGeometry relative="1" as="geometry"/>
                </mxCell>
                <mxCell id="91" value="Graphql" style="sketch=0;points=[[0,0,0],[0.25,0,0],[0.5,0,0],[0.75,0,0],[1,0,0],[0,1,0],[0.25,1,0],[0.5,1,0],[0.75,1,0],[1,1,0],[0,0.25,0],[0,0.5,0],[0,0.75,0],[1,0.25,0],[1,0.5,0],[1,0.75,0]];outlineConnect=0;fontColor=#FFFFFF;gradientColor=#66B2FF;gradientDirection=north;fillColor=#66B2FF;strokeColor=#ffffff;dashed=0;verticalLabelPosition=bottom;verticalAlign=top;align=center;html=1;fontSize=12;fontStyle=0;aspect=fixed;shape=mxgraph.aws4.resourceIcon;resIcon=mxgraph.aws4.iot_things_graph;" parent="1" vertex="1">
                    <mxGeometry x="268.64" y="569" width="38" height="38" as="geometry"/>
                </mxCell>
                <mxCell id="92" style="edgeStyle=none;html=1;" parent="1" source="56" target="91" edge="1">
                    <mxGeometry relative="1" as="geometry"/>
                </mxCell>
                <mxCell id="53" style="edgeStyle=none;html=1;" parent="1" source="50" target="3" edge="1">
                    <mxGeometry relative="1" as="geometry"/>
                </mxCell>
                <mxCell id="94" style="edgeStyle=none;html=1;" edge="1" parent="1" source="116" target="100">
                    <mxGeometry relative="1" as="geometry"/>
                </mxCell>
                <mxCell id="95" style="edgeStyle=none;html=1;" edge="1" parent="1" source="112" target="100">
                    <mxGeometry relative="1" as="geometry"/>
                </mxCell>
                <mxCell id="96" style="edgeStyle=none;html=1;" edge="1" parent="1" source="120" target="100">
                    <mxGeometry relative="1" as="geometry"/>
                </mxCell>
                <mxCell id="97" style="edgeStyle=none;html=1;" edge="1" parent="1" source="120" target="102">
                    <mxGeometry relative="1" as="geometry"/>
                </mxCell>
                <mxCell id="98" style="edgeStyle=none;html=1;" edge="1" parent="1" source="106" target="100">
                    <mxGeometry relative="1" as="geometry"/>
                </mxCell>
                <mxCell id="99" style="edgeStyle=none;html=1;" edge="1" parent="1" source="106" target="104">
                    <mxGeometry relative="1" as="geometry"/>
                </mxCell>
                <mxCell id="100" value="Usuarios" style="aspect=fixed;html=1;points=[];align=center;image;fontSize=12;image=img/lib/azure2/identity/Users.svg;" vertex="1" parent="1">
                    <mxGeometry x="120.00000000000006" y="459.09000000000003" width="36.57" height="40" as="geometry"/>
                </mxCell>
                <mxCell id="101" style="edgeStyle=none;html=1;" edge="1" parent="1" source="102" target="100">
                    <mxGeometry relative="1" as="geometry"/>
                </mxCell>
                <mxCell id="102" value="AD Concesionaria" style="aspect=fixed;html=1;points=[];align=center;image;fontSize=12;image=img/lib/azure2/identity/Azure_Active_Directory.svg;" vertex="1" parent="1">
                    <mxGeometry y="139.09" width="40" height="36.57" as="geometry"/>
                </mxCell>
                <mxCell id="103" style="edgeStyle=none;html=1;" edge="1" parent="1" source="104" target="100">
                    <mxGeometry relative="1" as="geometry"/>
                </mxCell>
                <mxCell id="104" value="AD Tecsidel" style="aspect=fixed;html=1;points=[];align=center;image;fontSize=12;image=img/lib/azure2/identity/Azure_Active_Directory.svg;" vertex="1" parent="1">
                    <mxGeometry x="2.842170943040401e-14" y="449.09000000000003" width="40" height="36.57" as="geometry"/>
                </mxCell>
                <mxCell id="105" value="" style="group" vertex="1" connectable="0" parent="1">
                    <mxGeometry x="-160" y="229.09" width="120" height="270" as="geometry"/>
                </mxCell>
                <mxCell id="106" value="" style="rounded=1;whiteSpace=wrap;html=1;strokeColor=#314354;fillColor=#647687;fontColor=#ffffff;" vertex="1" parent="105">
                    <mxGeometry y="30" width="120" height="240" as="geometry"/>
                </mxCell>
                <mxCell id="107" value="Soporte" style="aspect=fixed;html=1;points=[];align=center;image;fontSize=12;image=img/lib/azure2/identity/Users.svg;" vertex="1" parent="105">
                    <mxGeometry x="41.71" y="50" width="38.29" height="41.88" as="geometry"/>
                </mxCell>
                <mxCell id="108" value="Desarrolladores" style="aspect=fixed;html=1;points=[];align=center;image;fontSize=12;image=img/lib/azure2/identity/Users.svg;" vertex="1" parent="105">
                    <mxGeometry x="41.71000000000001" y="120" width="36.57" height="40" as="geometry"/>
                </mxCell>
                <mxCell id="109" value="DirecciÃ³n" style="aspect=fixed;html=1;points=[];align=center;image;fontSize=12;image=img/lib/azure2/identity/Users.svg;" vertex="1" parent="105">
                    <mxGeometry x="41.71000000000001" y="198.16999999999996" width="36.57" height="40" as="geometry"/>
                </mxCell>
                <mxCell id="110" value="TECSIDEL" style="text;html=1;strokeColor=none;fillColor=none;align=center;verticalAlign=middle;whiteSpace=wrap;rounded=0;" vertex="1" parent="105">
                    <mxGeometry x="30" width="60" height="30" as="geometry"/>
                </mxCell>
                <mxCell id="111" value="" style="group" vertex="1" connectable="0" parent="1">
                    <mxGeometry x="-160" y="509.09000000000003" width="120" height="150" as="geometry"/>
                </mxCell>
                <mxCell id="112" value="" style="rounded=1;whiteSpace=wrap;html=1;strokeColor=#314354;fillColor=#647687;fontColor=#ffffff;rotation=-90;" vertex="1" parent="111">
                    <mxGeometry y="30" width="120" height="120" as="geometry"/>
                </mxCell>
                <mxCell id="113" value="Servicios externos" style="aspect=fixed;html=1;points=[];align=center;image;fontSize=12;image=img/lib/azure2/identity/Users.svg;" vertex="1" parent="111">
                    <mxGeometry x="40" y="60" width="36.57" height="40" as="geometry"/>
                </mxCell>
                <mxCell id="114" value="SERVICIOS EXTERNOS" style="text;html=1;strokeColor=none;fillColor=none;align=center;verticalAlign=middle;whiteSpace=wrap;rounded=0;" vertex="1" parent="111">
                    <mxGeometry x="30" width="60" height="30" as="geometry"/>
                </mxCell>
                <mxCell id="115" value="" style="group" vertex="1" connectable="0" parent="1">
                    <mxGeometry x="-160" y="659.09" width="120" height="161.83000000000004" as="geometry"/>
                </mxCell>
                <mxCell id="116" value="" style="rounded=1;whiteSpace=wrap;html=1;strokeColor=#314354;fillColor=#647687;fontColor=#ffffff;rotation=-90;" vertex="1" parent="115">
                    <mxGeometry y="41.83000000000001" width="120" height="120" as="geometry"/>
                </mxCell>
                <mxCell id="117" value="Usuarios" style="aspect=fixed;html=1;points=[];align=center;image;fontSize=12;image=img/lib/azure2/identity/Users.svg;" vertex="1" parent="115">
                    <mxGeometry x="43.42000000000007" y="81.82999999999996" width="36.57" height="40" as="geometry"/>
                </mxCell>
                <mxCell id="118" value="USUARIOS DEL PEAJE" style="text;html=1;strokeColor=none;fillColor=none;align=center;verticalAlign=middle;whiteSpace=wrap;rounded=0;" vertex="1" parent="115">
                    <mxGeometry x="25.85" y="10" width="68.29" height="30" as="geometry"/>
                </mxCell>
                <mxCell id="119" value="" style="group" vertex="1" connectable="0" parent="1">
                    <mxGeometry x="-160" y="-70" width="120.00000000000001" height="288.1700000000001" as="geometry"/>
                </mxCell>
                <mxCell id="120" value="" style="rounded=1;whiteSpace=wrap;html=1;strokeColor=#314354;fillColor=#647687;fontColor=#ffffff;rotation=-180;" vertex="1" parent="119">
                    <mxGeometry y="30" width="120" height="258.17" as="geometry"/>
                </mxCell>
                <mxCell id="121" value="DirecciÃ³n" style="aspect=fixed;html=1;points=[];align=center;image;fontSize=12;image=img/lib/azure2/identity/Users.svg;rotation=0;" vertex="1" parent="119">
                    <mxGeometry x="41.709999999999994" y="226.34" width="36.57" height="40" as="geometry"/>
                </mxCell>
                <mxCell id="122" value="CONCESIONARIA" style="text;html=1;strokeColor=none;fillColor=none;align=center;verticalAlign=middle;whiteSpace=wrap;rounded=0;rotation=0;" vertex="1" parent="119">
                    <mxGeometry x="30" width="60" height="30" as="geometry"/>
                </mxCell>
                <mxCell id="123" value="Supervisor" style="aspect=fixed;html=1;points=[];align=center;image;fontSize=12;image=img/lib/azure2/identity/Users.svg;rotation=0;" vertex="1" parent="119">
                    <mxGeometry x="41.71000000000001" y="164.34" width="36.57" height="40" as="geometry"/>
                </mxCell>
                <mxCell id="124" value="Operador" style="aspect=fixed;html=1;points=[];align=center;image;fontSize=12;image=img/lib/azure2/identity/Users.svg;rotation=0;" vertex="1" parent="119">
                    <mxGeometry x="41.71000000000001" y="99.34" width="36.57" height="40" as="geometry"/>
                </mxCell>
                <mxCell id="125" value="TÃ©cnico" style="aspect=fixed;html=1;points=[];align=center;image;fontSize=12;image=img/lib/azure2/identity/Users.svg;rotation=0;" vertex="1" parent="119">
                    <mxGeometry x="41.71000000000001" y="36.34" width="36.57" height="40" as="geometry"/>
                </mxCell>
            </root>
        </mxGraphModel>
    </diagram>
</mxfile>